<svg id="Capa_1" enable-background="new 0 0 512 512" height="512" viewBox="0 0 512 512" width="512" xmlns="http://www.w3.org/2000/svg"><g><path d="m421.04 192.24v.11c0 55.04-22.36 107.13-60.97 144.88-6.99 6.82-12.31 14.92-15.82 23.7l-115.41-97.73-168.69-142.86c-19.26-19.26-30.08-45.38-30.08-72.61v-38.77c39.06 18.79 53.06 15.59 95.62 7.4 25.12-4.26 78.27-16.36 103.15-16.36 106.15 0 192.2 86.09 192.2 192.24z" fill="#555a67"/><path d="m421.04 192.24v.11c0 55.04-22.36 107.13-60.97 144.88-6.99 6.82-12.31 14.92-15.82 23.7l-115.41-97.73v-263.2c106.15 0 192.2 86.09 192.2 192.24z" fill="#414952"/><path d="m360.89 481.22h-240.59v-60.14h-60.2c-16.58 0-30.03-13.45-30.03-30.03v-60.21l4.97-88.44 25.11-41.82v-80.24h101.46c27.01 0 48.91 21.89 48.91 48.9v41.32l18.32 5.74 39.91 12.51 31.99 71.97 43.51 60.15c-5.28 13.23-6.44 27.99-2.87 42.27z" fill="#f5d5ac"/><path d="m360.89 481.22h-132.05v-264.92l39.91 12.51 31.99 71.97 43.51 60.15c-5.28 13.23-6.44 27.99-2.87 42.27z" fill="#ebbd96"/><path d="m300.74 257.89v42.89l-71.9 22.01-69.23 21.19v-31.47l69.23-21.14 41.9-12.8v-20.68c-.77-23.17-26.64-33.75-41.9-23.05l-69.23 73.08v-43.62l50.91-53.74c5.86-4.05 12.04-6.83 18.32-8.47 33.64-9.05 72.19 16.45 71.9 55.8z" fill="#d6d6ea"/><path d="m300.74 257.89v42.89l-71.9 22.01v-31.42l41.9-12.8v-20.68c-.77-23.17-26.64-33.75-41.9-23.05v-32.75c33.64-9.05 72.19 16.45 71.9 55.8z" fill="#a9aaca"/><g><path d="m167.69 255.77v85.64c0 20.47-20.54 34.56-39.63 27.2l-97.99-37.77-30.07-30.07 35.04-58.37z" fill="#f1f1f1"/></g><circle cx="409.61" cy="409.61" fill="#fc6768" r="102.39"/><path d="m512 409.61c0 56.55-45.84 102.39-102.39 102.39v-204.78c56.55 0 102.39 45.84 102.39 102.39z" fill="#e73267"/><path d="m430.82 409.61 32.39 32.39-21.21 21.21-32.39-32.39-32.39 32.39-21.21-21.21 32.39-32.39-32.39-32.39 21.21-21.21 32.39 32.39 32.39-32.39 21.21 21.21z" fill="#f1f1f1"/><path d="m430.82 409.61 32.39 32.39-21.21 21.21-32.39-32.39v-42.42l32.39-32.39 21.21 21.21z" fill="#d6d6ea"/></g></svg>