<svg id="Capa_1" enable-background="new 0 0 512 512" height="512" viewBox="0 0 512 512" width="512" xmlns="http://www.w3.org/2000/svg"><g><path d="m421.04 192.23v.12c0 59.84-26.42 116.18-71.43 154.41-3.4 2.88-6.2 6.27-8.38 9.99l-112.39-94.53-168.69-141.88c-19.26-19.26-30.08-45.38-30.08-72.61v-38.77c39.06 18.79 53.06 15.59 95.62 7.4 25.12-4.26 78.26-16.4 103.15-16.36 106.15 0 192.2 86.09 192.2 192.23z" fill="#555a67"/><path d="m421.04 192.23v.12c0 59.84-26.42 116.18-71.43 154.41-3.4 2.88-6.2 6.27-8.38 9.99l-112.39-94.53v-262.22c106.15 0 192.2 86.09 192.2 192.23z" fill="#414952"/><path d="m360.89 481.22h-240.59v-60.14l-85.26-178.68 25.11-41.82v-80.24h101.46c27.01 0 48.91 21.89 48.91 48.9v41.32l18.32 5.27 45.1 12.97 26.8 71.98 40.49 55.97c-5.06 8.63-6.7 19.04-4.19 29.07z" fill="#f5d5ac"/><path d="m360.89 481.22h-132.05v-265.39l45.1 12.97 26.8 71.98 40.49 55.97c-5.06 8.63-6.7 19.04-4.19 29.07z" fill="#ebbd96"/><path d="m300.74 257.89v42.89l-71.9 39.4-71.75 39.31v-34.21l71.75-39.31 41.9-22.96v-25.12c-.68-22.47-29.48-33.75-41.9-21.33l-71.75 100.88v-51.76l53.43-75.12c5.85-4.05 12.04-6.83 18.32-8.47 33.64-9.05 72.19 16.45 71.9 55.8z" fill="#d6d6ea"/><path d="m300.74 257.89v42.89l-71.9 39.4v-34.21l41.9-22.96v-25.12c-.68-22.47-29.48-33.75-41.9-21.33v-34.47c33.64-9.05 72.19 16.45 71.9 55.8z" fill="#a9aaca"/><circle cx="409.61" cy="409.61" fill="#12d8d3" r="102.39"/><path d="m512 409.61c0 56.55-45.84 102.39-102.39 102.39v-204.78c56.55 0 102.39 45.84 102.39 102.39z" fill="#00a0ab"/><path d="m167.68 270.71v102.98c0 26.17-21.2 47.38-47.38 47.39h-66.78c-13.78 0-25.79-9.38-29.13-22.75l-24.39-97.56 35.04-58.37 25.11 28.31z" fill="#f1f1f1"/><path d="m470.67 381.63-71.78 71.78-50.34-50.34 21.22-21.21 29.12 29.12 50.56-50.56z" fill="#f1f1f1"/><path d="m470.67 381.63-61.06 61.06v-42.43l39.84-39.84z" fill="#d6d6ea"/></g></svg>